# xmcd
#
# Track frame offsets:
#	150
#	7044
#	44476
#	78467
#	102999
#	139672
#	152114
#	173953
#	213806
#	253179
#	286279
#
# Disc length: 4581 seconds
#
# Revision: 1
# Processed by: cddbd v1.5.2PL0 Copyright (c) Steve Scherf et al.
# Submitted via: audiograbber 1.83.01
#
DISCID=9811e30b
DTITLE=Grateful Dead - 78-01-14 Bakersfield Memorial Auditorium, Bakersfield CA
DYEAR=1900
DGENRE=
TTITLE0=Tuning
TTITLE1=Jack Straw
TTITLE2=Dire Wolf
TTITLE3=Cassidy
TTITLE4=They Love Each Other
TTITLE5=Mama Tried
TTITLE6=Me and My Uncle
TTITLE7=Loser
TTITLE8=Looks Like Rain
TTITLE9=Deal
TTITLE10=Let It Grow
EXTD=
EXTT0=
EXTT1=
EXTT2=
EXTT3=
EXTT4=
EXTT5=
EXTT6=
EXTT7=
EXTT8=
EXTT9=
EXTT10=
PLAYORDER=
